<?xml version="1.0" standalone="no"?>
<!DOCTYPE svg PUBLIC "-//W3C//DTD SVG 20010904//EN"
 "http://www.w3.org/TR/2001/REC-SVG-20010904/DTD/svg10.dtd">
<svg version="1.0" xmlns="http://www.w3.org/2000/svg"
 width="1239.000000pt" height="1239.000000pt" viewBox="0 0 1239.000000 1239.000000"
 preserveAspectRatio="xMidYMid meet">
<metadata>
Created by potrace 1.11, written by Peter Selinger 2001-2013
</metadata>
<g transform="translate(0.000000,1239.000000) scale(0.100000,-0.100000)"
fill="#000000" stroke="none">
<path d="M5509 10295 l-626 -313 -6 -99 c-8 -122 -7 -638 2 -676 5 -24 37 -42
320 -179 l314 -151 643 321 644 322 0 367 c0 203 -3 378 -6 391 -5 19 -68 54
-315 178 -170 85 -317 154 -326 153 -10 0 -300 -141 -644 -314z"/>
<path d="M4073 7997 c-255 -127 -463 -234 -463 -238 0 -3 140 -74 310 -158
l310 -152 0 -394 0 -395 -160 80 c-88 44 -162 80 -165 80 -3 0 -4 -108 -3
-240 l3 -240 324 -151 323 -150 319 168 319 167 -2 780 -3 779 -314 149 c-173
81 -319 148 -325 147 -6 0 -219 -104 -473 -232z"/>
<path d="M6626 8017 l-168 -82 1 -195 c1 -107 4 -196 6 -198 1 -2 78 33 169
77 l166 80 0 200 c0 111 -1 201 -2 200 -2 0 -79 -37 -172 -82z"/>
<path d="M7271 3758 l-164 -80 6 -464 6 -463 -82 36 c-45 19 -115 48 -154 65
l-73 31 0 168 c0 129 -3 169 -12 168 -7 0 -298 -143 -646 -318 l-634 -317 162
-77 162 -77 -8 -201 c-5 -141 -4 -200 4 -198 6 2 78 40 161 84 147 78 151 81
151 113 0 17 2 32 5 32 3 0 73 -34 155 -75 l150 -75 0 -200 c0 -110 3 -200 6
-200 3 0 367 183 810 406 l804 406 -2 195 -3 195 -310 148 -310 147 -3 316
c-1 175 -6 317 -10 316 -4 0 -81 -37 -171 -81z m-626 -1100 c80 -35 145 -65
145 -68 0 -5 -304 -170 -314 -170 -3 0 -6 70 -6 156 0 136 2 155 15 150 9 -3
81 -34 160 -68z"/>
<path d="M4335 3599 l-410 -207 158 -76 159 -76 -8 -201 c-5 -141 -4 -200 4
-198 6 2 78 40 161 84 147 78 151 81 151 113 0 17 2 32 5 32 3 0 73 -34 155
-75 l150 -75 0 -200 c0 -110 3 -200 6 -200 3 0 367 183 810 406 l804 406 0
133 0 134 -132 -63 c-73 -35 -218 -105 -321 -155 -104 -50 -194 -91 -201 -91
-7 0 -248 117 -535 260 -287 143 -528 259 -534 259 -7 -1 -196 -95 -422 -210z
m710 -131 c80 -35 145 -65 145 -68 0 -5 -304 -170 -314 -170 -3 0 -6 70 -6
156 0 136 2 155 15 150 9 -3 81 -34 160 -68z"/>
</g>
</svg>
